<svg width="59" height="59" viewBox="0 0 59 59" fill="none" xmlns="http://www.w3.org/2000/svg">
<circle cx="29.5" cy="29.5" r="29.5" fill="white"/>
<path d="M29.3871 31.5711C30.3587 31.5711 31.1463 30.7835 31.1463 29.8119C31.1463 28.8403 30.3587 28.0527 29.3871 28.0527C28.4155 28.0527 27.6279 28.8403 27.6279 29.8119C27.6279 30.7835 28.4155 31.5711 29.3871 31.5711Z" fill="#333D21"/>
<path d="M41.9523 29.1144H39.6068C39.2717 24.0044 35.1669 19.8997 30.0569 19.5646V17.2469C30.0569 16.856 29.7497 16.5488 29.3588 16.5488C28.9679 16.5488 28.6886 16.856 28.6886 17.2469V19.5925C23.5786 19.9276 19.4739 24.0323 19.1388 29.1423H16.8211C16.4302 29.1423 16.123 29.4495 16.123 29.8404C16.123 30.2314 16.4302 30.5385 16.8211 30.5385H19.1667C19.5018 35.6485 23.6066 39.7533 28.7166 40.0884V42.3781C28.7166 42.769 29.0237 43.0762 29.4147 43.0762C29.8056 43.0762 30.1127 42.769 30.1127 42.3781V40.0325C35.2228 39.6975 39.3275 35.5927 39.6626 30.4827H41.9523C42.3433 30.4827 42.6504 30.1755 42.6504 29.7846C42.6504 29.3937 42.3433 29.1144 41.9523 29.1144ZM30.0848 38.6922V36.4304C30.0848 36.0395 29.7777 35.7323 29.3867 35.7323C28.9958 35.7323 28.6886 36.0395 28.6886 36.4304V38.6922C24.3326 38.3571 20.8421 34.8667 20.507 30.5106H22.7689C23.1598 30.5106 23.4669 30.2034 23.4669 29.8125C23.4669 29.4216 23.1598 29.1144 22.7689 29.1144H20.507C20.8421 24.7584 24.3326 21.2679 28.6886 20.9328V23.1946C28.6886 23.5856 28.9958 23.8927 29.3867 23.8927C29.7777 23.8927 30.0848 23.5856 30.0848 23.1946V20.9328C34.4409 21.2679 37.9313 24.7584 38.2664 29.1144H36.0046C35.6137 29.1144 35.3065 29.4216 35.3065 29.8125C35.3065 30.2034 35.6137 30.5106 36.0046 30.5106H38.2664C37.9313 34.8667 34.4409 38.3571 30.0848 38.6922Z" fill="#333D21"/>
</svg>
