<svg width="212" height="212" viewBox="0 0 212 212" fill="none" xmlns="http://www.w3.org/2000/svg">
<circle cx="106" cy="106" r="104.5" stroke="white" stroke-width="3"/>
<path d="M56.5 102.75H2V108.25H56.5L59 106.75H151.5L154 108.25H209V102.75H154L151.5 104.25H59L56.5 102.75Z" fill="white"/>
<path d="M108.25 56.5L108.25 2L102.75 2L102.75 56.5L104.25 59L104.25 151.5L102.75 154L102.75 209H108.25L108.25 154L106.75 151.5L106.75 59L108.25 56.5Z" fill="white"/>
<circle cx="67" cy="105.25" r="2.5" fill="white"/>
<circle cx="105.465" cy="66.75" r="2.5" transform="rotate(90 105.465 66.75)" fill="white"/>
<circle cx="77" cy="105.25" r="2.5" fill="white"/>
<circle cx="105.475" cy="76.75" r="2.5" transform="rotate(90 105.475 76.75)" fill="white"/>
<circle cx="87" cy="105.25" r="2.5" fill="white"/>
<circle cx="105.484" cy="86.7505" r="2.5" transform="rotate(90 105.484 86.7505)" fill="white"/>
<circle cx="97" cy="105.25" r="2.5" fill="white"/>
<circle cx="105.493" cy="96.7505" r="2.5" transform="rotate(90 105.493 96.7505)" fill="white"/>
<circle cx="114" cy="105.25" r="2.5" fill="white"/>
<circle cx="105.508" cy="113.75" r="2.5" transform="rotate(90 105.508 113.75)" fill="white"/>
<circle cx="124" cy="105.25" r="2.5" fill="white"/>
<circle cx="105.517" cy="123.75" r="2.5" transform="rotate(90 105.517 123.75)" fill="white"/>
<circle cx="134" cy="105.25" r="2.5" fill="white"/>
<circle cx="105.525" cy="133.75" r="2.5" transform="rotate(90 105.525 133.75)" fill="white"/>
<circle cx="144" cy="105.25" r="2.5" fill="white"/>
<circle cx="105.535" cy="143.75" r="2.5" transform="rotate(90 105.535 143.75)" fill="white"/>
</svg>
