<svg width="130" height="129" viewBox="0 0 130 129" fill="none" xmlns="http://www.w3.org/2000/svg">
<circle opacity="0.6" cx="65" cy="64.0581" r="63" fill="black"/>
<path d="M98.7377 28.8092L98.7586 28.7319L98.31 28.89L87.8994 32.5606L87.8991 32.5607C85.8347 33.2918 83.9595 34.4735 82.4093 36.0198L82.4091 36.02L76.1584 42.2709L69.2547 45.2297L69.2542 45.2299C69.0843 45.3032 68.9303 45.4077 68.7996 45.5389C68.7995 45.5391 68.7993 45.5392 68.7992 45.5394L30.1771 84.1601L98.7377 28.8092ZM98.7377 28.8092C99.1368 28.7937 99.5323 28.9428 99.8238 29.2343C100.22 29.6309 100.353 30.2197 100.167 30.7485L96.4965 41.1589L96.4964 41.1592C95.7654 43.2236 94.5837 45.099 93.0375 46.6497L93.0373 46.6499L86.7866 52.9008L83.8279 59.8047L83.8276 59.8056C83.7544 59.9747 83.6498 60.1293 83.5182 60.2603L44.8975 98.881C44.6245 99.1547 44.2539 99.3081 43.8679 99.3081C43.482 99.3081 43.1115 99.1548 42.8385 98.8812L98.7377 28.8092ZM90.9777 44.5887C92.2169 43.3458 93.164 41.8426 93.7502 40.188L90.9777 44.5887ZM90.9777 44.5887L85.5584 50.0082L79.0475 43.497L84.4668 38.0776L90.9777 44.5887ZM29.75 85.1897C29.75 85.5757 29.9033 85.9461 30.1769 86.2191L30.1769 84.1603C29.9033 84.4333 29.75 84.8038 29.75 85.1897ZM30.1771 86.2194L42.8383 98.881L30.1771 86.2194ZM80.4306 59.2297L49.6231 90.0384L39.0196 79.4346L69.8272 48.6259L80.4306 59.2297ZM33.2653 85.1892L36.9617 81.4926L47.5651 92.0964L43.8687 95.793L33.2653 85.1892ZM81.9979 56.6794L72.3771 47.0582L76.6565 45.2238L83.8322 52.3997L81.9979 56.6794ZM96.4095 32.6452L93.7503 40.1877L84.4671 38.0773C85.71 36.8381 87.2133 35.891 88.8677 35.3048L96.4095 32.6452Z" fill="white" stroke="white" stroke-width="0.5"/>
<path d="M54 1C23.8952 6.21484 1 32.4628 1 64.0583C1 95.6537 23.8952 121.902 54 127.117" stroke="white" stroke-width="2"/>
<path d="M76 127.117C106.105 121.902 129 95.6539 129 64.0584C129 32.463 106.105 6.21498 76 1.00014" stroke="white" stroke-width="2"/>
</svg>
