<svg width="136" height="136" viewBox="0 0 136 136" fill="none" xmlns="http://www.w3.org/2000/svg">
<g filter="url(#filter0_b_344_150)">
<circle cx="68" cy="68" r="62" fill="#F4EFEF" fill-opacity="0.3"/>
</g>
<g filter="url(#filter1_d_344_150)">
<path d="M127 68C127 100.585 100.585 127 68 127C35.4152 127 9 100.585 9 68C9 35.4152 35.4152 9 68 9C100.585 9 127 35.4152 127 68Z" stroke="#323232" stroke-width="6"/>
</g>
<circle cx="68" cy="68" r="64" stroke="#4A4A4A" stroke-width="4"/>
<path fill-rule="evenodd" clip-rule="evenodd" d="M124 68V66H102V67H98V65H97.5V67H92V65H91.5V71H92H93V70H92V67.5H97.5V71H98H99V70H98V67.5H102V68H124Z" fill="#010101"/>
<path fill-rule="evenodd" clip-rule="evenodd" d="M68 124L70 124L69.9999 102L68.9999 102L68.9999 98L70.9999 98L70.9999 97.5L68.9999 97.5L68.9999 92L70.9999 92L70.9999 91.5L64.9999 91.5L64.9999 92L64.9999 93L65.9999 93L65.9999 92L68.4999 92L68.4999 97.5L64.9999 97.5L64.9999 98L64.9999 99L65.9999 99L65.9999 98L68.4999 98L68.4999 102L67.9999 102L68 124Z" fill="#010101"/>
<path fill-rule="evenodd" clip-rule="evenodd" d="M12 68V70H34V69H38V71H38.5V69H44V71H44.5V65H44H43V66H44V68.5H38.5V65H38H37V66H38V68.5H34V68H12Z" fill="#010101"/>
<path fill-rule="evenodd" clip-rule="evenodd" d="M68 12L66 12L66.0001 34L67.0001 34L67.0001 38L65.0001 38L65.0001 38.5L67.0001 38.5L67.0001 44L65.0001 44L65.0001 44.5L71.0001 44.5L71.0001 44L71.0001 43L70.0001 43L70.0001 44L67.5001 44L67.5001 38.5L71.0001 38.5L71.0001 38L71.0001 37L70.0001 37L70.0001 38L67.5001 38L67.5001 34L68.0001 34L68 12Z" fill="#010101"/>
<path d="M59.6847 78.358C57.8778 78.358 56.267 78.0256 54.8523 77.3608C53.446 76.696 52.3295 75.7798 51.5028 74.6122C50.6761 73.4446 50.2457 72.1065 50.2116 70.598H55.581C55.6406 71.6122 56.0668 72.4347 56.8594 73.0653C57.652 73.696 58.5938 74.0114 59.6847 74.0114C60.554 74.0114 61.321 73.8196 61.9858 73.4361C62.6591 73.044 63.1832 72.5028 63.5582 71.8125C63.9418 71.1136 64.1335 70.3125 64.1335 69.4091C64.1335 68.4886 63.9375 67.679 63.5455 66.9801C63.1619 66.2812 62.6293 65.7358 61.9474 65.3438C61.2656 64.9517 60.4858 64.7514 59.608 64.7429C58.8409 64.7429 58.0952 64.9006 57.3707 65.2159C56.6548 65.5312 56.0966 65.9616 55.696 66.5071L50.7741 65.625L52.0142 51.8182H68.0199V56.3438H56.5781L55.9006 62.902H56.054C56.5142 62.2543 57.2088 61.7173 58.1378 61.2912C59.0668 60.8651 60.1065 60.652 61.2571 60.652C62.8338 60.652 64.2401 61.0227 65.4759 61.7642C66.7116 62.5057 67.6875 63.5241 68.4034 64.8196C69.1193 66.1065 69.473 67.5895 69.4645 69.2685C69.473 71.0327 69.0639 72.6009 68.2372 73.973C67.419 75.3366 66.2727 76.4105 64.7983 77.1946C63.3324 77.9702 61.6278 78.358 59.6847 78.358ZM77.9276 58.3636L81.5327 65.2287L85.2273 58.3636H90.8139L85.125 68.1818L90.9673 78H85.4062L81.5327 71.2116L77.723 78H72.098L77.9276 68.1818L72.3026 58.3636H77.9276Z" fill="black"/>
<defs>
<filter id="filter0_b_344_150" x="3" y="3" width="130" height="130" filterUnits="userSpaceOnUse" color-interpolation-filters="sRGB">
<feFlood flood-opacity="0" result="BackgroundImageFix"/>
<feGaussianBlur in="BackgroundImage" stdDeviation="1.5"/>
<feComposite in2="SourceAlpha" operator="in" result="effect1_backgroundBlur_344_150"/>
<feBlend mode="normal" in="SourceGraphic" in2="effect1_backgroundBlur_344_150" result="shape"/>
</filter>
<filter id="filter1_d_344_150" x="0" y="0" width="136" height="136" filterUnits="userSpaceOnUse" color-interpolation-filters="sRGB">
<feFlood flood-opacity="0" result="BackgroundImageFix"/>
<feColorMatrix in="SourceAlpha" type="matrix" values="0 0 0 0 0 0 0 0 0 0 0 0 0 0 0 0 0 0 127 0" result="hardAlpha"/>
<feOffset/>
<feGaussianBlur stdDeviation="3"/>
<feColorMatrix type="matrix" values="0 0 0 0 0 0 0 0 0 0 0 0 0 0 0 0 0 0 1 0"/>
<feBlend mode="normal" in2="BackgroundImageFix" result="effect1_dropShadow_344_150"/>
<feBlend mode="normal" in="SourceGraphic" in2="effect1_dropShadow_344_150" result="shape"/>
</filter>
</defs>
</svg>
