<svg width="58" height="58" viewBox="0 0 58 58" fill="none" xmlns="http://www.w3.org/2000/svg">
<circle cx="29" cy="29" r="28.875" fill="white" stroke="#333D21" stroke-width="0.25"/>
<path d="M37.6378 21.7607H21.0709C20.5216 21.7607 19.9949 21.9789 19.6065 22.3673C19.2182 22.7556 19 23.2824 19 23.8316V37.6374C19 38.1866 19.2182 38.7134 19.6065 39.1017C19.9949 39.4901 20.5216 39.7083 21.0709 39.7083H37.6378C38.1871 39.7083 38.7138 39.4901 39.1022 39.1017C39.4905 38.7134 39.7087 38.1866 39.7087 37.6374V23.8316C39.7087 23.2824 39.4905 22.7556 39.1022 22.3673C38.7138 21.9789 38.1871 21.7607 37.6378 21.7607V21.7607ZM21.0709 23.1413H37.6378C37.8209 23.1413 37.9965 23.214 38.1259 23.3435C38.2554 23.473 38.3281 23.6485 38.3281 23.8316V25.2122H20.3806V23.8316C20.3806 23.6485 20.4533 23.473 20.5828 23.3435C20.7122 23.214 20.8878 23.1413 21.0709 23.1413V23.1413ZM37.6378 38.3277H21.0709C20.8878 38.3277 20.7122 38.255 20.5828 38.1255C20.4533 37.9961 20.3806 37.8205 20.3806 37.6374V26.5928H38.3281V37.6374C38.3281 37.8205 38.2554 37.9961 38.1259 38.1255C37.9965 38.255 37.8209 38.3277 37.6378 38.3277Z" fill="#333D21"/>
<path d="M24.5223 20.3806H27.2835C27.4666 20.3806 27.6421 20.3079 27.7716 20.1784C27.901 20.0489 27.9738 19.8734 27.9738 19.6903C27.9738 19.5072 27.901 19.3316 27.7716 19.2022C27.6421 19.0727 27.4666 19 27.2835 19H24.5223C24.3392 19 24.1637 19.0727 24.0342 19.2022C23.9048 19.3316 23.832 19.5072 23.832 19.6903C23.832 19.8734 23.9048 20.0489 24.0342 20.1784C24.1637 20.3079 24.3392 20.3806 24.5223 20.3806V20.3806Z" fill="#333D21"/>
<path d="M31.4256 20.3806H34.1868C34.3699 20.3806 34.5455 20.3079 34.6749 20.1784C34.8044 20.0489 34.8771 19.8734 34.8771 19.6903C34.8771 19.5072 34.8044 19.3316 34.6749 19.2022C34.5455 19.0727 34.3699 19 34.1868 19H31.4256C31.2426 19 31.067 19.0727 30.9375 19.2022C30.8081 19.3316 30.7354 19.5072 30.7354 19.6903C30.7354 19.8734 30.8081 20.0489 30.9375 20.1784C31.067 20.3079 31.2426 20.3806 31.4256 20.3806Z" fill="#333D21"/>
<path d="M29.3544 30.7351C29.7356 30.7351 30.0446 30.426 30.0446 30.0448C30.0446 29.6635 29.7356 29.3545 29.3544 29.3545C28.9731 29.3545 28.6641 29.6635 28.6641 30.0448C28.6641 30.426 28.9731 30.7351 29.3544 30.7351Z" fill="#333D21"/>
<path d="M24.5223 30.7351C24.9036 30.7351 25.2126 30.426 25.2126 30.0448C25.2126 29.6635 24.9036 29.3545 24.5223 29.3545C24.1411 29.3545 23.832 29.6635 23.832 30.0448C23.832 30.426 24.1411 30.7351 24.5223 30.7351Z" fill="#333D21"/>
<path d="M34.1864 30.7351C34.5676 30.7351 34.8767 30.426 34.8767 30.0448C34.8767 29.6635 34.5676 29.3545 34.1864 29.3545C33.8051 29.3545 33.4961 29.6635 33.4961 30.0448C33.4961 30.426 33.8051 30.7351 34.1864 30.7351Z" fill="#333D21"/>
<path d="M29.3544 35.5671C29.7356 35.5671 30.0446 35.2581 30.0446 34.8768C30.0446 34.4956 29.7356 34.1865 29.3544 34.1865C28.9731 34.1865 28.6641 34.4956 28.6641 34.8768C28.6641 35.2581 28.9731 35.5671 29.3544 35.5671Z" fill="#333D21"/>
<path d="M24.5223 35.5671C24.9036 35.5671 25.2126 35.2581 25.2126 34.8768C25.2126 34.4956 24.9036 34.1865 24.5223 34.1865C24.1411 34.1865 23.832 34.4956 23.832 34.8768C23.832 35.2581 24.1411 35.5671 24.5223 35.5671Z" fill="#333D21"/>
<path d="M34.1864 35.5671C34.5676 35.5671 34.8767 35.2581 34.8767 34.8768C34.8767 34.4956 34.5676 34.1865 34.1864 34.1865C33.8051 34.1865 33.4961 34.4956 33.4961 34.8768C33.4961 35.2581 33.8051 35.5671 34.1864 35.5671Z" fill="#333D21"/>
</svg>
