<svg width="126" height="126" viewBox="0 0 126 126" fill="none" xmlns="http://www.w3.org/2000/svg">
<rect x="0.65" y="0.65" width="124.7" height="124.7" fill="black" fill-opacity="0.6" stroke="white" stroke-width="1.3"/>
<path fill-rule="evenodd" clip-rule="evenodd" d="M53.7036 53.5001L59.7036 46.5001C60.3703 45.3334 61.8036 42.7001 62.2036 41.5001C62.6036 40.3001 67.7036 35.0001 68.2036 34.5001C68.7036 34.0001 69.7036 34.5001 70.2036 35.0001L74.2036 39C74.5369 39.3333 75.0036 40.2 74.2036 41C73.4036 41.8 66.2036 48.3333 62.7036 51.5H65.2036L98.7036 17C98.8702 16.5 99.2036 15.3 99.2036 14.5C99.2036 13.7 102.204 10.5 103.704 9C104.87 9 107.204 9.3 107.204 10.5C107.204 12 106.704 12.5 105.704 13.5C104.904 14.3 95.3702 24.5 90.7036 29.5C91.0369 30.3333 91.5036 32.2 90.7036 33C89.9036 33.8 74.3703 51.6667 66.7036 60.5C66.7036 61.1667 66.5036 62.7 65.7036 63.5C64.9036 64.3 60.7036 69.1667 58.7036 71.5C59.2036 72.3333 59.9036 74.4 58.7036 76C57.5036 77.6 56.5369 78.6667 56.2036 79C55.5369 79.3333 53.8036 79.6 52.2036 78C51.0369 79.3333 48.7036 83 49.2036 84C49.8703 85 51.1037 87.3 50.7037 88.5C50.2037 90 46.7037 92 44.7037 92L31.2037 117C30.7037 117.333 29.3037 117.6 27.7037 116L19.2037 107.5C18.8704 106.667 18.7037 104.6 20.7037 103C22.7037 101.4 33.8703 89 39.2036 83C39.7036 82.5 41.1035 81.5 42.7036 81.5C44.3037 81.5 46.3703 75.8333 47.2036 73C46.2036 72.5 44.6036 71.2 46.2036 70C47.8036 68.8 49.2036 67.5 49.7036 67C49.8703 66.3333 49.9036 65.2 48.7036 66L40.7036 75C40.2036 75.1667 39.0036 75.3 38.2036 74.5C37.4036 73.7 36.8703 72.8333 36.7036 72.5C36.3703 72.1667 36.2036 71.1 38.2036 69.5L50.2036 57.5C50.5369 57.3333 51.0036 56.9 50.2036 56.5C49.2036 56 49.7036 53.5001 51.7036 53.5001H53.7036ZM52 62L59.5 53.5C60.1667 53.8333 61.3 54.8 60.5 56C59.7 57.2 55.8333 61.5 54 63.5L52 62ZM56.5 77.6752C55.2684 78.4963 54.3739 77.969 53.5396 77.4773L53.5395 77.4772C53.3578 77.3701 53.1789 77.2646 53 77.1752C53.2925 76.8409 53.671 76.4102 54.0864 75.9398L55.5 77L54.8568 75.0705C55.9155 73.8798 57.0199 72.6553 57.5 72.1752C58.3 71.3752 58.5 73.5085 58.5 74.6752C58.5 75.6753 58 76.6751 56.5 77.6752Z" fill="white"/>
</svg>
