<svg width="21" height="22" viewBox="0 0 21 22" fill="none" xmlns="http://www.w3.org/2000/svg">
<path d="M18.6378 3.57324H2.07087C1.52164 3.57324 0.994907 3.79142 0.606544 4.17979C0.21818 4.56815 0 5.09488 0 5.64411V19.4499C0 19.9991 0.21818 20.5259 0.606544 20.9142C0.994907 21.3026 1.52164 21.5208 2.07087 21.5208H18.6378C19.1871 21.5208 19.7138 21.3026 20.1022 20.9142C20.4905 20.5259 20.7087 19.9991 20.7087 19.4499V5.64411C20.7087 5.09488 20.4905 4.56815 20.1022 4.17979C19.7138 3.79142 19.1871 3.57324 18.6378 3.57324V3.57324ZM2.07087 4.95382H18.6378C18.8209 4.95382 18.9965 5.02655 19.1259 5.156C19.2554 5.28546 19.3281 5.46104 19.3281 5.64411V7.02469H1.38058V5.64411C1.38058 5.46104 1.45331 5.28546 1.58276 5.156C1.71222 5.02655 1.88779 4.95382 2.07087 4.95382V4.95382ZM18.6378 20.1402H2.07087C1.88779 20.1402 1.71222 20.0675 1.58276 19.938C1.45331 19.8086 1.38058 19.633 1.38058 19.4499V8.40527H19.3281V19.4499C19.3281 19.633 19.2554 19.8086 19.1259 19.938C18.9965 20.0675 18.8209 20.1402 18.6378 20.1402Z" fill="white"/>
<path d="M5.52232 2.19308H8.28348C8.46656 2.19308 8.64214 2.12035 8.77159 1.9909C8.90104 1.86144 8.97377 1.68587 8.97377 1.50279C8.97377 1.31971 8.90104 1.14414 8.77159 1.01468C8.64214 0.885227 8.46656 0.8125 8.28348 0.8125H5.52232C5.33924 0.8125 5.16367 0.885227 5.03421 1.01468C4.90476 1.14414 4.83203 1.31971 4.83203 1.50279C4.83203 1.68587 4.90476 1.86144 5.03421 1.9909C5.16367 2.12035 5.33924 2.19308 5.52232 2.19308V2.19308Z" fill="white"/>
<path d="M12.4256 2.19308H15.1868C15.3699 2.19308 15.5455 2.12035 15.6749 1.9909C15.8044 1.86144 15.8771 1.68587 15.8771 1.50279C15.8771 1.31971 15.8044 1.14414 15.6749 1.01468C15.5455 0.885227 15.3699 0.8125 15.1868 0.8125H12.4256C12.2426 0.8125 12.067 0.885227 11.9375 1.01468C11.8081 1.14414 11.7354 1.31971 11.7354 1.50279C11.7354 1.68587 11.8081 1.86144 11.9375 1.9909C12.067 2.12035 12.2426 2.19308 12.4256 2.19308Z" fill="white"/>
<path d="M10.3544 12.5476C10.7356 12.5476 11.0446 12.2385 11.0446 11.8573C11.0446 11.476 10.7356 11.167 10.3544 11.167C9.97312 11.167 9.66406 11.476 9.66406 11.8573C9.66406 12.2385 9.97312 12.5476 10.3544 12.5476Z" fill="white"/>
<path d="M5.52232 12.5476C5.90356 12.5476 6.21261 12.2385 6.21261 11.8573C6.21261 11.476 5.90356 11.167 5.52232 11.167C5.14108 11.167 4.83203 11.476 4.83203 11.8573C4.83203 12.2385 5.14108 12.5476 5.52232 12.5476Z" fill="white"/>
<path d="M15.1864 12.5476C15.5676 12.5476 15.8767 12.2385 15.8767 11.8573C15.8767 11.476 15.5676 11.167 15.1864 11.167C14.8051 11.167 14.4961 11.476 14.4961 11.8573C14.4961 12.2385 14.8051 12.5476 15.1864 12.5476Z" fill="white"/>
<path d="M10.3544 17.3796C10.7356 17.3796 11.0446 17.0706 11.0446 16.6893C11.0446 16.3081 10.7356 15.999 10.3544 15.999C9.97312 15.999 9.66406 16.3081 9.66406 16.6893C9.66406 17.0706 9.97312 17.3796 10.3544 17.3796Z" fill="white"/>
<path d="M5.52232 17.3796C5.90356 17.3796 6.21261 17.0706 6.21261 16.6893C6.21261 16.3081 5.90356 15.999 5.52232 15.999C5.14108 15.999 4.83203 16.3081 4.83203 16.6893C4.83203 17.0706 5.14108 17.3796 5.52232 17.3796Z" fill="white"/>
<path d="M15.1864 17.3796C15.5676 17.3796 15.8767 17.0706 15.8767 16.6893C15.8767 16.3081 15.5676 15.999 15.1864 15.999C14.8051 15.999 14.4961 16.3081 14.4961 16.6893C14.4961 17.0706 14.8051 17.3796 15.1864 17.3796Z" fill="white"/>
</svg>
