<svg width="58" height="58" viewBox="0 0 58 58" fill="none" xmlns="http://www.w3.org/2000/svg">
<circle cx="29" cy="29" r="28.875" fill="white" stroke="#333D21" stroke-width="0.25"/>
<path d="M21.7777 39.6963H36.5039C37.4591 39.6963 38.2551 38.9269 38.2551 37.9716C38.2551 33.514 34.5669 29.8789 30.0297 29.8789H28.2254C23.6882 29.8789 20 33.514 20 37.9716C20.0265 38.9269 20.8225 39.6963 21.7777 39.6963ZM28.2519 30.9402H30.0562C34.0097 30.9402 37.2203 34.0977 37.2203 37.9716C37.2203 38.3431 36.9019 38.635 36.5304 38.635H21.7777C21.4063 38.635 21.0879 38.3431 21.0879 37.9716C21.0879 34.0977 24.2984 30.9402 28.2519 30.9402Z" fill="#333D21"/>
<path d="M25.1475 23.0066V24.519C25.1475 26.7478 26.9252 28.5521 29.154 28.5521C31.3829 28.5521 33.1606 26.7478 33.1606 24.5455V23.0331C33.1606 20.8043 31.3829 19 29.154 19C26.9252 19 25.1475 20.8043 25.1475 23.0066ZM32.0993 23.0066V24.519C32.0993 26.1641 30.7726 27.4907 29.154 27.4907C27.5355 27.4907 26.2088 26.1641 26.2088 24.5455V23.0331C26.2088 21.388 27.5355 20.0613 29.154 20.0613C30.7726 20.0613 32.0993 21.388 32.0993 23.0066Z" fill="#333D21"/>
</svg>
