<svg width="58" height="58" viewBox="0 0 58 58" fill="none" xmlns="http://www.w3.org/2000/svg">
<circle cx="29" cy="29" r="28.875" fill="white" stroke="#333D21" stroke-width="0.25"/>
<path d="M17 30.8779V24.4237C17 23.583 17.4977 22.878 18.2835 22.3627C18.9646 21.9288 19.9075 21.6305 20.9553 21.6305L33.4499 19.0271C33.5022 19.0271 33.5284 19 33.5808 19C34.6286 19 35.5978 19.2712 36.2788 19.7322C37.0646 20.2475 37.5623 20.9525 37.5623 21.7932V30.8779C37.5623 31.6915 37.0646 32.4237 36.2788 32.9389C35.5716 33.3728 34.6286 33.6711 33.5808 33.6711H26.0107L20.3004 37.4135C20.0123 37.6033 19.6456 37.522 19.4884 37.2237C19.3837 37.0609 19.3575 36.844 19.436 36.6542L20.6148 33.644C19.7242 33.5898 18.9122 33.3186 18.3097 32.9389C17.4977 32.4508 17 31.7186 17 30.8779ZM23.1294 26.1322C23.7319 26.1322 24.2557 26.6474 24.2557 27.2983C24.2557 27.9491 23.7581 28.4644 23.1294 28.4644C22.5007 28.4644 22.0031 27.9491 22.0031 27.2983C22.0031 26.6474 22.5269 26.1322 23.1294 26.1322ZM31.1972 26.1322C31.8258 26.1322 32.3235 26.6474 32.3235 27.2983C32.3235 27.9491 31.8258 28.4644 31.1972 28.4644C30.5685 28.4644 30.0708 27.9491 30.0708 27.2983C30.0708 26.6474 30.5685 26.1322 31.1972 26.1322ZM27.1633 26.1322C27.7919 26.1322 28.2896 26.6474 28.2896 27.2983C28.2896 27.9491 27.7919 28.4644 27.1633 28.4644C26.5346 28.4644 26.0369 27.922 26.0369 27.2712C26.0369 26.6203 26.5346 26.1322 27.1633 26.1322ZM25.9584 35.705C25.7226 35.461 25.6964 35.0813 25.9322 34.8372C26.1679 34.5932 26.5346 34.566 26.7704 34.783C26.9537 34.9457 27.1633 35.0813 27.4514 35.1626C27.7396 35.2711 28.0801 35.3254 28.4468 35.3254H34.1571C34.2881 35.3254 34.419 35.3796 34.5238 35.461L37.2218 37.2508L36.8027 36.1932C36.6717 35.8677 36.8289 35.5152 37.1432 35.3796C37.2218 35.3525 37.3004 35.3254 37.379 35.3254H37.7457C38.3219 35.3254 38.8458 35.1898 39.2125 34.9457C39.4745 34.7559 39.6578 34.566 39.6578 34.3491V29.5762C39.6578 29.4678 39.6055 29.3322 39.5007 29.2237C39.3697 29.061 39.1602 28.9254 38.8982 28.8169C38.5839 28.6813 38.4529 28.3288 38.5577 28.0034C38.6887 27.6779 39.0292 27.5423 39.3435 27.6508C39.7626 27.8406 40.1555 28.0847 40.4175 28.383C40.7056 28.7084 40.8628 29.1152 40.8628 29.5491V34.3762C40.8628 35.0542 40.4699 35.6237 39.8412 36.0304C39.4221 36.3016 38.872 36.4915 38.2696 36.5728L39.0554 38.6067C39.134 38.7965 39.1078 38.9864 39.003 39.1762C38.8196 39.4474 38.4529 39.5559 38.191 39.366L33.9737 36.5728H28.4468C27.9753 36.5728 27.5038 36.4915 27.0847 36.3559C26.6394 36.2203 26.2465 36.0033 25.9584 35.705ZM18.2049 24.4237V30.905C18.2049 31.2576 18.4669 31.6101 18.9122 31.9084C19.436 32.2338 20.1695 32.4508 20.9815 32.4508H21.453C21.5316 32.4508 21.6102 32.4508 21.6887 32.4779C22.0031 32.6135 22.1602 32.966 22.0293 33.2915L21.2172 35.3525L25.4607 32.5593C25.5655 32.4779 25.6964 32.4237 25.8274 32.4237H33.5546C34.3666 32.4237 35.1263 32.2338 35.624 31.8813C36.0693 31.6101 36.3312 31.2576 36.3312 30.8779V21.7932C36.3312 21.4135 36.0693 21.061 35.624 20.7898C35.1001 20.4644 34.3928 20.2475 33.5808 20.2475L21.1387 22.8237C21.0863 22.8508 21.0339 22.8508 20.9553 22.8508C20.1433 22.8508 19.3837 23.0678 18.886 23.3932C18.4669 23.6915 18.2049 24.044 18.2049 24.4237Z" fill="#333D21"/>
</svg>
